<svg width="48" height="48" viewBox="0 0 48 48" fill="none" xmlns="http://www.w3.org/2000/svg">
<g id="46899331646975334 1">
<path id="Vector" d="M46.281 30.75H45V27.3713C45.0096 26.0909 44.511 24.859 43.6135 23.9458C42.7161 23.0326 41.4931 22.5127 40.2127 22.5H12V11.7502H15.75C15.864 11.7502 15.9765 11.7243 16.079 11.6742C16.1814 11.6242 16.2711 11.5515 16.3413 11.4617C16.4114 11.3718 16.4601 11.2671 16.4837 11.1556C16.5073 11.044 16.5052 10.9286 16.4775 10.818L14.475 2.81775C14.4345 2.65594 14.3411 2.51226 14.2098 2.40943C14.0784 2.30661 13.9166 2.25051 13.7498 2.25H8.75025C8.58292 2.24984 8.42035 2.30563 8.28839 2.40851C8.15643 2.51139 8.06266 2.65544 8.022 2.81775L6.0225 10.818C5.9948 10.9286 5.99267 11.044 6.01628 11.1556C6.03989 11.2671 6.08861 11.3718 6.15875 11.4617C6.22889 11.5515 6.31859 11.6242 6.42104 11.6742C6.52349 11.7243 6.636 11.7502 6.75 11.7502H10.5V22.5H7.03725C5.75694 22.5127 4.53392 23.0326 3.63647 23.9458C2.73902 24.859 2.2404 26.0909 2.25 27.3713V30.75H1.719C1.26321 30.7504 0.826211 30.9316 0.503922 31.2539C0.181633 31.5762 0.000397199 32.0132 0 32.469L0 42C0 42.1989 0.0790176 42.3897 0.21967 42.5303C0.360322 42.671 0.551088 42.75 0.75 42.75H2.25V43.9207C2.2506 44.4057 2.44351 44.8706 2.78643 45.2136C3.12935 45.5565 3.59429 45.7494 4.07925 45.75H43.9207C44.4057 45.7494 44.8706 45.5565 45.2136 45.2136C45.5565 44.8706 45.7494 44.4057 45.75 43.9207V42.75H47.25C47.4489 42.75 47.6397 42.671 47.7803 42.5303C47.921 42.3897 48 42.1989 48 42V32.469C47.9996 32.0132 47.8184 31.5762 47.4961 31.2539C47.1738 30.9316 46.7368 30.7504 46.281 30.75ZM7.71075 10.2502L9.33525 3.75H13.1647L14.7892 10.2502H7.71075ZM3.7245 27.3713C3.7179 26.4852 4.06294 25.6328 4.68396 25.0008C5.30497 24.3688 6.15126 24.0089 7.03725 24H40.2127C41.0987 24.0089 41.945 24.3688 42.566 25.0008C43.1871 25.6328 43.5321 26.4852 43.5255 27.3713V30.75H42.969C42.5132 30.7504 42.0762 30.9316 41.7539 31.2539C41.4316 31.5762 41.2504 32.0132 41.25 32.469V34.5H6.75V32.469C6.7496 32.0132 6.56837 31.5762 6.24608 31.2539C5.92379 30.9316 5.48679 30.7504 5.031 30.75H3.7245V27.3713ZM41.25 36V41.25H6.75V36H41.25ZM1.5 41.25V32.469C1.5 32.4109 1.52307 32.3552 1.56414 32.3141C1.60521 32.2731 1.66092 32.25 1.719 32.25H5.031C5.08908 32.25 5.14479 32.2731 5.18586 32.3141C5.22693 32.3552 5.25 32.4109 5.25 32.469V41.25H1.5ZM44.25 43.9207C44.2498 44.008 44.215 44.0916 44.1533 44.1533C44.0916 44.215 44.008 44.2498 43.9207 44.25H4.07925C3.99199 44.2498 3.90836 44.215 3.84665 44.1533C3.78495 44.0916 3.7502 44.008 3.75 43.9207V42.75H44.25V43.9207ZM46.5 41.25H42.75V32.469C42.75 32.4109 42.7731 32.3552 42.8141 32.3141C42.8552 32.2731 42.9109 32.25 42.969 32.25H46.281C46.3391 32.25 46.3948 32.2731 46.4359 32.3141C46.4769 32.3552 46.5 32.4109 46.5 32.469V41.25Z" fill="#C3B97F"/>
<path id="Vector_2" d="M12 25.5H10.5V27H12V25.5Z" fill="#C3B97F"/>
<path id="Vector_3" d="M12 30H10.5V31.5H12V30Z" fill="#C3B97F"/>
<path id="Vector_4" d="M37.5 25.5H36V27H37.5V25.5Z" fill="#C3B97F"/>
<path id="Vector_5" d="M37.5 30H36V31.5H37.5V30Z" fill="#C3B97F"/>
<path id="Vector_6" d="M24.75 25.5H23.25V27H24.75V25.5Z" fill="#C3B97F"/>
<path id="Vector_7" d="M24.75 30H23.25V31.5H24.75V30Z" fill="#C3B97F"/>
<path id="Vector_8" d="M19.5 20.25H44.25C44.4489 20.25 44.6397 20.171 44.7803 20.0303C44.921 19.8897 45 19.6989 45 19.5V3.75C45 3.55109 44.921 3.36032 44.7803 3.21967C44.6397 3.07902 44.4489 3 44.25 3H19.5C19.3011 3 19.1103 3.07902 18.9697 3.21967C18.829 3.36032 18.75 3.55109 18.75 3.75V19.5C18.75 19.6989 18.829 19.8897 18.9697 20.0303C19.1103 20.171 19.3011 20.25 19.5 20.25ZM20.25 4.5H43.5V18.75H20.25V4.5Z" fill="#C3B97F"/>
<path id="Vector_9" d="M42 5.25H21.75C21.5511 5.25 21.3603 5.32902 21.2197 5.46967C21.079 5.61032 21 5.80109 21 6V17.25C21 17.4489 21.079 17.6397 21.2197 17.7803C21.3603 17.921 21.5511 18 21.75 18H42C42.1989 18 42.3897 17.921 42.5303 17.7803C42.671 17.6397 42.75 17.4489 42.75 17.25V6C42.75 5.80109 42.671 5.61032 42.5303 5.46967C42.3897 5.32902 42.1989 5.25 42 5.25ZM41.25 16.5H22.5V6.75H41.25V16.5Z" fill="#C3B97F"/>
</g>
</svg>
