<svg width="24" height="24" viewBox="0 0 24 24" fill="none" xmlns="http://www.w3.org/2000/svg">
<g id="ion:cart">
<path id="Vector" d="M8.25 21C9.07843 21 9.75 20.3284 9.75 19.5C9.75 18.6716 9.07843 18 8.25 18C7.42157 18 6.75 18.6716 6.75 19.5C6.75 20.3284 7.42157 21 8.25 21Z" fill="#C3B97F"/>
<path id="Vector_2" d="M18.75 21C19.5784 21 20.25 20.3284 20.25 19.5C20.25 18.6716 19.5784 18 18.75 18C17.9216 18 17.25 18.6716 17.25 19.5C17.25 20.3284 17.9216 21 18.75 21Z" fill="#C3B97F"/>
<path id="Vector_3" d="M21.7461 7.61487C21.6416 7.48825 21.51 7.38626 21.3608 7.31632C21.2115 7.24639 21.0485 7.21024 20.8834 7.21053H6.73618L6.45124 5.60882C6.42086 5.4382 6.33077 5.28365 6.19679 5.17231C6.06282 5.06097 5.89353 4.99996 5.71866 5H2.74373C2.54648 5 2.35731 5.07763 2.21783 5.21582C2.07836 5.354 2 5.54142 2 5.73684C2 5.93226 2.07836 6.11968 2.21783 6.25787C2.35731 6.39605 2.54648 6.47368 2.74373 6.47368H5.09486L7.21729 18.3912C7.24767 18.5618 7.33776 18.7163 7.47173 18.8277C7.60571 18.939 7.77499 19 7.94986 19H19.8496C20.0468 19 20.236 18.9224 20.3755 18.7842C20.515 18.646 20.5933 18.4586 20.5933 18.2632C20.5933 18.0677 20.515 17.8803 20.3755 17.7421C20.236 17.6039 20.0468 17.5263 19.8496 17.5263H8.57367L8.3115 16.0526H19.5447C19.8026 16.0523 20.0525 15.9637 20.252 15.8018C20.4516 15.6399 20.5886 15.4147 20.6398 15.1643L21.9785 8.5327C22.0108 8.37221 22.0067 8.20662 21.9665 8.04789C21.9263 7.88917 21.851 7.74127 21.7461 7.61487Z" fill="#C3B97F"/>
</g>
</svg>
